<svg id="Layer_1" data-name="Layer 1" xmlns="http://www.w3.org/2000/svg" viewBox="0 0 122.88 114.27"><defs><style>.cls-1,.cls-2,.cls-3{fill-rule:evenodd;}.cls-2{fill:#f9c450;}.cls-3{fill:#e0501e;}</style></defs><title>duck</title><path class="cls-1" d="M34.28,42.71c-24.6,6.52-27.23,67.46,27.56,67.55,42.18.06,72.76-36.3,48.33-73.61-1.63-2.49-6,22-38.3,20.12-19.81-1.16-20.33,13.29-16.53-4.05,16.33-3,22.31-20.21,18.07-33.25C62.78-13.22,3,11.44,34.28,42.71Zm-8.43-.26c-9.73-4.35-9.79-2.29-20.34-9.72-7.3-5.58-8.45-10.44,3.38-11.53a61.82,61.82,0,0,0,13.42-2.69c.1-.29.19-.57.3-.85a26,26,0,0,1,12-13.25A35,35,0,0,1,52.53,0c10.55.33,20.65,5.73,24.71,18.2a31.15,31.15,0,0,1,1,3.89A32.16,32.16,0,0,1,75.54,42a27,27,0,0,1-9.63,10.9,39.12,39.12,0,0,1,6.19-.09c22.29,1.31,29.76-11.23,32.7-16.17a9.77,9.77,0,0,1,2.71-3.42h0c2.41-1.58,4.36-1.27,6,1.27,6.47,9.88,9.35,19.77,9.34,29.09a44.39,44.39,0,0,1-6.32,22.75,53.12,53.12,0,0,1-16.75,17.2,69.11,69.11,0,0,1-38,10.78c-20.16,0-33.23-7.82-40.66-18.37A42.31,42.31,0,0,1,14,77.57a44.38,44.38,0,0,1,1.15-18.42c2-6.94,5.66-12.91,10.71-16.7Z"/><path class="cls-2" d="M34.28,42.71c-24.6,6.52-27.23,67.46,27.56,67.55,42.18.06,72.76-36.3,48.33-73.61-1.63-2.49-6,22-38.3,20.12-19.81-1.16-20.33,13.29-16.53-4.05,16.33-3,22.31-20.21,18.07-33.25C62.78-13.22,3,11.44,34.28,42.71Z"/><path class="cls-1" d="M46.84,16a5.3,5.3,0,1,0,5.3,5.29A5.29,5.29,0,0,0,46.84,16Z"/><path class="cls-3" d="M25.61,38.47c-1.92-5.26-5-10.65-3.65-16.77A104.39,104.39,0,0,1,6.37,24.6c-1.82.23-2.58.32-2.32.9,3.18,7.19,14.52,9.94,21.56,13Z"/><path class="cls-3" d="M72.82,94.4c16.88-1.87,29.29-14.61,19.45-29.63-.65-1-2.43,8.87-15.41,8.1-50.16-3-27.73,24.14-4,21.53Z"/><path d="M72.66,92.94a31.35,31.35,0,0,0,13.66-4.65,18.84,18.84,0,0,0,6.23-6.42,13.42,13.42,0,0,0,1.66-8.12,17.66,17.66,0,0,0-2.09-6.38c-1.82,2.81-5.83,7.52-15.35,7-15.2-.89-23.43,1-26.87,3.84a4.08,4.08,0,0,0-1.67,3.72,8.19,8.19,0,0,0,2.68,4.49c4.35,4.23,13,7.54,21.75,6.56Zm15.26-2.2A34.28,34.28,0,0,1,73,95.85c-9.7,1.07-19.23-2.64-24.11-7.38a11,11,0,0,1-3.54-6.22A6.81,6.81,0,0,1,48,75.94C52,72.62,60.9,70.47,76.94,71.41,86,72,89.05,66.84,90.25,64.83a3.7,3.7,0,0,1,1-1.32A1.4,1.4,0,0,1,93.5,64a21.69,21.69,0,0,1,3.62,9.45,16.37,16.37,0,0,1-2,9.86,21.8,21.8,0,0,1-7.19,7.45Z"/></svg>